<?xml version="1.0" encoding="UTF-8"?>
<svg width="260px" height="260px" viewBox="0 0 260 260" version="1.1" xmlns="http://www.w3.org/2000/svg" xmlns:xlink="http://www.w3.org/1999/xlink">
    <!-- Generator: Sketch 63.1 (92452) - https://sketch.com -->
    <title>pastille-methode-2</title>
    <desc>Created with Sketch.</desc>
    <defs>
        <circle id="path-1" cx="108.294319" cy="108.294319" r="108.294319"></circle>
        <filter x="-18.2%" y="-12.2%" width="136.5%" height="136.5%" filterUnits="objectBoundingBox" id="filter-2">
            <feOffset dx="0" dy="13" in="SourceAlpha" result="shadowOffsetOuter1"></feOffset>
            <feGaussianBlur stdDeviation="11" in="shadowOffsetOuter1" result="shadowBlurOuter1"></feGaussianBlur>
            <feColorMatrix values="0 0 0 0 0.117647059   0 0 0 0 0.196078431   0 0 0 0 0.329411765  0 0 0 0.3 0" type="matrix" in="shadowBlurOuter1"></feColorMatrix>
        </filter>
        <polygon id="path-3" points="0 87.368112 93.2153635 87.368112 93.2153635 0 0 0"></polygon>
    </defs>
    <g id="Dernière-itération" stroke="none" stroke-width="1" fill="none" fill-rule="evenodd">
        <g id="Artboard" transform="translate(-166.000000, -131.000000)">
            <g id="pastille-methode-2" transform="translate(188.000000, 140.000000)">
                <g id="Oval">
                    <use fill="black" fill-opacity="1" filter="url(#filter-2)" xlink:href="#path-1"></use>
                    <use fill="#69C1E4" fill-rule="evenodd" xlink:href="#path-1"></use>
                </g>
                <g id="icone-methode-frappe" transform="translate(58.945009, 58.945009)">
                    <g id="Group-46" transform="translate(2.741628, 5.483257)">
                        <path d="M8.90505011,60.4840078 L13.3421014,72.2289103 L13.3421014,76.7685801 L31.5433333,76.7685801 L31.5433333,72.8934343 C31.5433333,72.8934343 38.786167,65.0852768 39.0937777,60.4840078 C39.4013884,55.8827388 39.0937777,52.7579825 39.0937777,52.7579825 C39.0937777,52.7579825 37.6899544,48.210846 33.5269562,50.9865406 L33.5269562,37.4795294 C33.5269562,37.4795294 32.087711,33.2403886 27.6115093,35.5419565 C27.6115093,35.5419565 27.2684767,31.685477 24.0003461,31.6668106 C24.0003461,31.6668106 21.0211831,31.6668106 20.7191653,35.4803573 C20.7191653,35.4803573 15.7023144,32.4526663 14.7328746,39.2341715 C14.7328746,39.2341715 10.4337821,36.1952807 8.90505011,40.748017 L8.90505011,60.4840078 Z" id="Fill-1" fill="#FFFFFF"></path>
                        <path d="M84.1016974,60.4840078 L79.6627818,72.2289103 L79.6627818,76.7685801 L61.4634143,76.7685801 L61.4634143,72.8934343 C61.4634143,72.8934343 54.2187162,65.0852768 53.9111055,60.4840078 C53.6034948,55.8827388 53.9111055,52.7579825 53.9111055,52.7579825 C53.9111055,52.7579825 55.3167932,48.210846 59.477927,50.9865406 L59.477927,37.4795294 C59.477927,37.4795294 60.9190365,33.2403886 65.393374,35.5419565 C65.393374,35.5419565 65.7364065,31.685477 69.0064015,31.6668106 C69.0064015,31.6668106 71.9837002,31.6668106 72.285718,35.4803573 C72.285718,35.4803573 77.3044331,32.4526663 78.2720086,39.2341715 C78.2720086,39.2341715 82.5711012,36.1952807 84.1016974,40.748017 L84.1016974,60.4840078 Z" id="Fill-3" fill="#FFFFFF"></path>
                        <path d="M1.1873773,16.1987069 L1.1873773,52.7587291 L9.51710219,52.7587291 L9.51710219,46.8694781 L9.51710219,40.6031657 C9.51710219,39.2554512 10.6189078,38.1522666 11.9649376,38.1522666 C13.3109675,38.1522666 14.4146374,39.2554512 14.4146374,40.6031657 L14.4146374,46.8694781 L15.637623,46.8694781 L15.637623,37.7136061 C15.637623,36.3677583 16.7394286,35.262707 18.0854584,35.262707 C19.4333526,35.262707 20.5351582,36.3677583 20.5351582,37.7136061 L20.5351582,46.8694781 L21.620185,46.8694781 L21.620185,34.6280492 C21.620185,33.2784681 22.7219906,32.1752835 24.0680204,32.1752835 C25.4159146,32.1752835 26.5177202,33.2784681 26.5177202,34.6280492 L26.5177202,46.8694781 L27.602747,46.8694781 L27.602747,37.7136061 C27.602747,36.3677583 28.7045526,35.262707 30.0505825,35.262707 C31.3984766,35.262707 32.9999166,36.4032244 32.9999166,37.7509389 L32.9999166,46.9049443 L32.9458517,46.4569505 L32.9458517,52.0232727 C33.0539815,50.7726235 34.7579583,50.1846318 36.0331445,50.1846318 C37.3810387,50.1846318 38.4828443,51.2878163 38.4828443,52.6373975 L38.4828443,52.7587291 L54.5923234,52.7587291 L54.5923234,52.6373975 C54.5923234,51.2878163 55.7127721,50.4011621 57.0420231,50.1846318 C58.4327964,49.9569016 60.1871095,50.8976885 60.5636996,51.7731429 L60.5636996,49.165446 L60.5748854,49.0683807 L60.5748854,37.7136061 C60.5748854,36.3677583 61.676691,35.262707 63.0245852,35.262707 C64.3724793,35.262707 65.4724206,36.3677583 65.4724206,37.7136061 L65.4724206,49.0683807 L66.5574474,49.0683807 L66.5574474,34.2547211 C66.5574474,32.9070066 67.659253,31.8019554 69.0071472,31.8019554 C70.3550414,31.8019554 71.4549826,32.9070066 71.4549826,34.2547211 L71.4549826,49.0683807 L72.5400095,49.0683807 L72.5400095,37.4000105 C72.5400095,36.0541626 73.6418151,34.9491114 74.9897092,34.9491114 C76.3376034,34.9491114 77.4375447,36.0541626 77.4375447,37.4000105 L77.4375447,49.0683807 L78.5225715,49.0683807 L78.5225715,40.2111712 C78.5225715,38.9847883 79.5274331,37.9824023 80.752283,37.9824023 L81.1922595,37.9824023 C82.4171094,37.9824023 83.4201067,38.9847883 83.4201067,40.2111712 L83.4201067,52.7587291 L92.0294777,52.7587291 L92.0294777,16.1987069 L1.1873773,16.1987069 Z" id="Fill-5" fill="#D6E9FF"></path>
                        <mask id="mask-4" fill="white">
                            <use xlink:href="#path-3"></use>
                        </mask>
                        <g id="Clip-8"></g>
                        <polygon id="Fill-7" fill="#1E1777" mask="url(#mask-4)" points="8.90393153 23.9937979 11.9651241 23.9937979 11.9651241 20.9269074 8.90393153 20.9269074"></polygon>
                        <polygon id="Fill-9" fill="#1E1777" mask="url(#mask-4)" points="15.0244523 23.9937979 18.0856448 23.9937979 18.0856448 20.9269074 15.0244523 20.9269074"></polygon>
                        <polygon id="Fill-10" fill="#1E1777" mask="url(#mask-4)" points="21.0070143 23.9937979 24.0682069 23.9937979 24.0682069 20.9269074 21.0070143 20.9269074"></polygon>
                        <polygon id="Fill-11" fill="#1E1777" mask="url(#mask-4)" points="26.9895764 23.9937979 30.0507689 23.9937979 30.0507689 20.9269074 26.9895764 20.9269074"></polygon>
                        <polygon id="Fill-12" fill="#1E1777" mask="url(#mask-4)" points="32.9721384 23.9937979 36.0333309 23.9937979 36.0333309 20.9269074 32.9721384 20.9269074"></polygon>
                        <polygon id="Fill-13" fill="#1E1777" mask="url(#mask-4)" points="38.9547004 23.9937979 42.015893 23.9937979 42.015893 20.9269074 38.9547004 20.9269074"></polygon>
                        <polygon id="Fill-14" fill="#1E1777" mask="url(#mask-4)" points="44.9372625 23.9937979 47.998455 23.9937979 47.998455 20.9269074 44.9372625 20.9269074"></polygon>
                        <polygon id="Fill-15" fill="#1E1777" mask="url(#mask-4)" points="50.9198245 23.9937979 53.981017 23.9937979 53.981017 20.9269074 50.9198245 20.9269074"></polygon>
                        <polygon id="Fill-16" fill="#1E1777" mask="url(#mask-4)" points="56.9023865 23.9937979 59.9635791 23.9937979 59.9635791 20.9269074 56.9023865 20.9269074"></polygon>
                        <polygon id="Fill-17" fill="#1E1777" mask="url(#mask-4)" points="63.0229073 23.9937979 66.0840998 23.9937979 66.0840998 20.9269074 63.0229073 20.9269074"></polygon>
                        <polygon id="Fill-18" fill="#1E1777" mask="url(#mask-4)" points="69.0054693 23.9937979 72.0666619 23.9937979 72.0666619 20.9269074 69.0054693 20.9269074"></polygon>
                        <polygon id="Fill-19" fill="#1E1777" mask="url(#mask-4)" points="74.9880314 23.9937979 78.0492239 23.9937979 78.0492239 20.9269074 74.9880314 20.9269074"></polygon>
                        <polygon id="Fill-20" fill="#1E1777" mask="url(#mask-4)" points="80.9705934 23.9937979 84.0317859 23.9937979 84.0317859 20.9269074 80.9705934 20.9269074"></polygon>
                        <polygon id="Fill-21" fill="#1E1777" mask="url(#mask-4)" points="5.98256203 29.9838475 9.04375457 29.9838475 9.04375457 26.916957 5.98256203 26.916957"></polygon>
                        <polygon id="Fill-22" fill="#1E1777" mask="url(#mask-4)" points="11.9651241 29.9838475 15.0263166 29.9838475 15.0263166 26.916957 11.9651241 26.916957"></polygon>
                        <polygon id="Fill-23" fill="#1E1777" mask="url(#mask-4)" points="17.9476861 29.9838475 21.0088786 29.9838475 21.0088786 26.916957 17.9476861 26.916957"></polygon>
                        <polygon id="Fill-24" fill="#1E1777" mask="url(#mask-4)" points="23.9302481 29.9838475 26.9914407 29.9838475 26.9914407 26.916957 23.9302481 26.916957"></polygon>
                        <polygon id="Fill-25" fill="#1E1777" mask="url(#mask-4)" points="29.9128102 29.9838475 32.9740027 29.9838475 32.9740027 26.916957 29.9128102 26.916957"></polygon>
                        <polygon id="Fill-26" fill="#1E1777" mask="url(#mask-4)" points="36.0333309 29.9838475 39.0945235 29.9838475 39.0945235 26.916957 36.0333309 26.916957"></polygon>
                        <polygon id="Fill-27" fill="#1E1777" mask="url(#mask-4)" points="42.015893 29.9838475 45.0770855 29.9838475 45.0770855 26.916957 42.015893 26.916957"></polygon>
                        <polygon id="Fill-28" fill="#1E1777" mask="url(#mask-4)" points="47.998455 29.9838475 51.0596475 29.9838475 51.0596475 26.916957 47.998455 26.916957"></polygon>
                        <polygon id="Fill-29" fill="#1E1777" mask="url(#mask-4)" points="53.981017 29.9838475 57.0422096 29.9838475 57.0422096 26.916957 53.981017 26.916957"></polygon>
                        <polygon id="Fill-30" fill="#1E1777" mask="url(#mask-4)" points="59.9635791 29.9838475 63.0247716 29.9838475 63.0247716 26.916957 59.9635791 26.916957"></polygon>
                        <polygon id="Fill-31" fill="#1E1777" mask="url(#mask-4)" points="65.9461411 29.9838475 69.0073336 29.9838475 69.0073336 26.916957 65.9461411 26.916957"></polygon>
                        <polygon id="Fill-32" fill="#1E1777" mask="url(#mask-4)" points="71.9287031 29.9838475 74.9898957 29.9838475 74.9898957 26.916957 71.9287031 26.916957"></polygon>
                        <polygon id="Fill-33" fill="#1E1777" mask="url(#mask-4)" points="77.9112652 29.9838475 80.9724577 29.9838475 80.9724577 26.916957 77.9112652 26.916957"></polygon>
                        <polygon id="Fill-34" fill="#1E1777" mask="url(#mask-4)" points="84.0317859 29.9838475 87.0929785 29.9838475 87.0929785 26.916957 84.0317859 26.916957"></polygon>
                        <polygon id="Fill-35" fill="#1E1777" mask="url(#mask-4)" points="80.9705934 35.9738971 84.0317859 35.9738971 84.0317859 32.9070066 80.9705934 32.9070066"></polygon>
                        <polygon id="Fill-36" fill="#1E1777" mask="url(#mask-4)" points="50.9216888 36.0093633 53.9828813 36.0093633 53.9828813 32.9443394 50.9216888 32.9443394"></polygon>
                        <polygon id="Fill-37" fill="#1E1777" mask="url(#mask-4)" points="44.9391268 36.0093633 48.0003193 36.0093633 48.0003193 32.9443394 44.9391268 32.9443394"></polygon>
                        <polygon id="Fill-38" fill="#1E1777" mask="url(#mask-4)" points="38.9565647 35.9738971 42.0177573 35.9738971 42.0177573 32.9070066 38.9565647 32.9070066"></polygon>
                        <polygon id="Fill-39" fill="#1E1777" mask="url(#mask-4)" points="8.90579583 35.9738971 11.9669884 35.9738971 11.9669884 32.9070066 8.90579583 32.9070066"></polygon>
                        <polygon id="Fill-40" fill="#1E1777" mask="url(#mask-4)" points="36.0333309 41.96208 39.0945235 41.96208 39.0945235 38.8970562 36.0333309 38.8970562"></polygon>
                        <polygon id="Fill-41" fill="#1E1777" mask="url(#mask-4)" points="42.015893 41.96208 45.0770855 41.96208 45.0770855 38.8970562 42.015893 38.8970562"></polygon>
                        <polygon id="Fill-42" fill="#1E1777" mask="url(#mask-4)" points="47.998455 41.96208 51.0596475 41.96208 51.0596475 38.8970562 47.998455 38.8970562"></polygon>
                        <polygon id="Fill-43" fill="#1E1777" mask="url(#mask-4)" points="53.981017 41.96208 57.0422096 41.96208 57.0422096 38.8970562 53.981017 38.8970562"></polygon>
                        <polygon id="Fill-44" fill="#1E1777" mask="url(#mask-4)" points="38.9565647 47.9521296 53.9828813 47.9521296 53.9828813 44.8871058 38.9565647 44.8871058"></polygon>
                        <path d="M89.8767621,50.9848606 L85.5646194,50.9848606 L85.5646194,48.832624 L85.5646194,45.2990734 L85.5646194,42.5140457 L85.5646194,40.9815338 C85.5646194,39.7271513 85.0071915,38.6127669 84.1719818,37.7765119 C83.3367722,36.8002589 82.225645,36.383998 80.9728306,36.383998 C80.4154027,36.383998 79.8598391,36.5239961 79.3024112,36.6621275 C79.1644525,35.9658705 78.7449834,35.2696136 78.1894198,34.7114881 C77.3542101,33.7371017 76.243083,33.3189742 74.9902685,33.3189742 C74.4328406,33.3189742 73.8772771,33.4571056 73.3198492,33.5989703 C73.1818905,32.9008467 72.7624213,32.2045898 72.2068578,31.6483309 C71.3716481,30.6720779 70.260521,30.255817 69.0077065,30.255817 C67.754892,30.255817 66.6419006,30.8102093 65.8066909,31.6483309 C65.2511273,32.2045898 64.8335225,32.9008467 64.6936995,33.5989703 C64.1362716,33.4571056 63.5825723,33.3189742 63.0251445,33.3189742 C61.8375807,33.3189742 60.7842471,33.8304337 59.9639519,34.5957564 L59.9639519,32.9064466 L56.9027594,32.9064466 L56.9027594,35.9733371 L58.8677392,35.9733371 C58.5825002,36.5613289 58.4333557,37.2127864 58.4333557,37.9165099 L58.4333557,42.3740476 L58.4333557,45.5790695 C58.4333557,47.1097148 58.362512,47.2049134 58.2953969,48.7803581 C57.8777921,48.6422267 57.4583229,48.5040953 56.9027594,48.5040953 C55.6518092,48.5040953 54.5388178,49.0603541 53.7036081,49.8966091 C53.3288823,50.2176713 53.0604221,50.5891328 52.8441625,50.9848606 L40.094165,50.9848606 C39.8760411,50.5891328 39.6075808,50.2176713 39.2347194,49.8966091 C38.3995097,49.0603541 37.2865183,48.5040953 36.0337038,48.5040953 C35.4762759,48.5040953 34.9207124,48.6422267 34.5031075,48.7803581 L34.5031075,45.5790695 L34.5031075,42.3740476 L34.5031075,37.9165099 C34.5031075,37.2127864 34.3558272,36.5613289 34.0687239,35.9733371 L36.0337038,35.9733371 L36.0337038,32.9064466 L32.9743756,32.9064466 L32.9743756,34.5957564 C32.1540804,33.8304337 31.1007468,33.3189742 29.913183,33.3189742 C29.3557551,33.3189742 28.7983273,33.4571056 28.2427637,33.5989703 C28.1029407,32.9008467 27.6872001,32.2045898 27.1297723,31.6483309 C26.2964269,30.8102093 25.1815712,30.255817 23.930621,30.255817 C22.6778065,30.255817 21.5648151,30.6720779 20.7296054,31.6483309 C20.1721775,32.2045898 19.756437,32.9008467 19.616614,33.5989703 C19.0610504,33.4571056 18.5036225,33.3189742 17.948059,33.3189742 C16.6952445,33.3189742 15.582253,33.7371017 14.7470434,34.7114881 C14.1896155,35.2696136 13.773875,35.9658705 13.6340519,36.6621275 C13.0784884,36.5239961 12.5210605,36.383998 11.9654969,36.383998 C10.7126824,36.383998 9.599691,36.8002589 8.76448134,37.7765119 C7.93113599,38.6127669 7.37370812,39.7271513 7.37370812,40.9815338 L7.37370812,42.5140457 L7.37370812,45.2990734 L7.37370812,48.832624 L7.37370812,50.9848606 L2.99072172,50.9848606 C2.96462142,50.9848606 2.94411404,50.9867272 2.92174235,50.9867272 L2.92174235,17.9695888 L89.8767621,17.9695888 L89.8767621,50.9848606 Z M82.3636038,60.2041984 L77.911638,72.1842975 L77.911638,75.3874528 L63.0251445,75.3874528 L63.0251445,71.7661701 L62.6075396,71.3480426 C60.6593385,69.3974032 55.5119862,63.2692222 55.5119862,58.9516825 L55.5119862,52.9616329 C55.5119862,52.6816369 55.6518092,52.265376 55.929591,51.9853799 C56.4851546,51.4272544 57.4583229,51.4272544 58.0157508,51.9853799 C58.2953969,52.265376 58.4333557,52.5435055 58.4333557,53.0997643 L58.4333557,57.557302 L61.4945482,57.557302 L61.4945482,38.0546413 C61.4945482,37.7765119 61.6343712,37.3583844 61.912153,37.080255 C62.4677166,36.5239961 63.440885,36.5239961 63.9983129,37.080255 C64.2779589,37.3583844 64.4159177,37.6383805 64.4159177,38.0546413 L64.4159177,50.0347405 L67.4752459,50.0347405 L67.4752459,38.0546413 L67.4752459,34.9914842 C67.4752459,34.7114881 67.6169333,34.2952272 67.8947151,34.0152311 C68.4502786,33.4571056 69.423447,33.4571056 69.9808749,34.0152311 C70.260521,34.2952272 70.3984797,34.5733567 70.3984797,34.9914842 L70.3984797,50.0347405 L73.4578079,50.0347405 L73.4578079,38.0546413 C73.4578079,37.7765119 73.5994953,37.3583844 73.8772771,37.080255 C74.4328406,36.5239961 75.406009,36.5239961 75.9634369,37.080255 C76.243083,37.3583844 76.3810417,37.6383805 76.3810417,38.0546413 L76.3810417,50.0347405 L79.44037,50.0347405 L79.44037,40.9815338 C79.44037,40.7015377 79.5820573,40.2852768 79.8598391,40.0052807 C80.4154027,39.4471552 81.3885711,39.4471552 81.945999,40.0052807 C82.225645,40.2852768 82.3636038,40.5634063 82.3636038,40.9815338 L82.3636038,60.2041984 Z M37.424477,58.9516825 C37.424477,63.2692222 32.2771246,69.3974032 30.3307879,71.3480426 L29.913183,71.7661701 L29.913183,75.3874528 L15.0266895,75.3874528 L15.0266895,72.1842975 L10.5728594,60.2041984 L10.5728594,40.9815338 C10.5728594,40.5634063 10.7126824,40.2852768 10.9923285,40.0052807 C11.5460278,39.4471552 12.5210605,39.4471552 13.0784884,40.0052807 C13.3562701,40.2852768 13.4942289,40.7015377 13.4942289,40.9815338 L13.4942289,50.0347405 L16.5554214,50.0347405 L16.5554214,38.0546413 C16.5554214,37.6383805 16.6952445,37.3583844 16.9748906,37.080255 C17.5285898,36.5239961 18.5036225,36.5239961 19.0610504,37.080255 C19.3388322,37.3583844 19.4767909,37.7765119 19.4767909,38.0546413 L19.4767909,50.0347405 L22.5379835,50.0347405 L22.5379835,34.9914842 C22.5379835,34.5733567 22.6778065,34.2952272 22.9555883,34.0152311 C23.5111519,33.4571056 24.4861846,33.4571056 25.0436124,34.0152311 C25.3213942,34.2952272 25.459353,34.7114881 25.459353,34.9914842 L25.459353,38.0546413 L25.459353,50.0347405 L28.5205455,50.0347405 L28.5205455,38.0546413 C28.5205455,37.6383805 28.6603685,37.3583844 28.9381503,37.080255 C29.4937139,36.5239961 30.4687466,36.5239961 31.0261745,37.080255 C31.3039562,37.3583844 31.441915,37.7765119 31.441915,38.0546413 L31.441915,57.557302 L34.5031075,57.557302 L34.5031075,53.0997643 C34.5031075,52.5435055 34.6429306,52.265376 34.9207124,51.9853799 C35.4762759,51.4272544 36.4513086,51.4272544 37.0087365,51.9853799 C37.2865183,52.265376 37.424477,52.6816369 37.424477,52.9616329 L37.424477,58.9516825 Z M92.102745,15.7408199 C91.5471814,15.1826944 90.7101074,14.904565 90.0147208,14.904565 L47.9988279,14.904565 L47.9988279,13.5120511 C47.9988279,12.2595353 47.581223,11.1432842 46.6080546,10.3088959 C45.772845,9.47264091 44.6598535,8.91638202 43.407039,8.91638202 L34.3651488,8.91638202 C33.947544,8.91638202 33.6697622,8.77638398 33.3901161,8.49638789 C33.1123343,8.21825844 32.9743756,7.80013096 32.9743756,7.52200151 C32.9743756,7.10387402 33.1123343,6.82574458 33.3901161,6.54574849 C33.6697622,6.26948569 34.0855027,6.12948764 34.3651488,6.12948764 L52.3128349,6.12948764 C53.5637851,6.12948764 54.6767765,5.71136016 55.5119862,4.73697378 C56.3471958,3.89885216 56.9027594,2.78633438 56.9027594,1.53195192 L56.9027594,0.0013066484 L53.8434312,0.0013066484 L53.8434312,1.53195192 C53.8434312,1.95007941 53.7036081,2.22820885 53.423962,2.5063383 C53.1480445,2.78633438 52.7285754,2.92633242 52.4507936,2.92633242 L34.5049718,2.92633242 C33.2521573,2.92633242 32.1373016,3.34445991 31.3039562,4.31884629 C30.4687466,5.15323463 29.913183,6.26948569 29.913183,7.52200151 C29.913183,8.77638398 30.3307879,9.88890176 31.3039562,10.7270234 C32.1373016,11.5614117 33.2521573,12.1195372 34.5049718,12.1195372 L43.5468621,12.1195372 C43.9644669,12.1195372 44.2422487,12.2595353 44.5218948,12.5357981 C44.7978123,12.8157942 44.9394996,13.232055 44.9394996,13.5120511 L44.9394996,14.904565 L2.92174235,14.904565 C2.0865327,14.904565 1.39114609,15.1826944 0.833718212,15.7408199 C0.278154645,16.2989455 0.000372861454,17.1333338 0.000372861454,17.8295907 L0.000372861454,51.1192587 C0.000372861454,51.9555137 0.278154645,52.6517706 0.833718212,53.2080295 C1.3426741,53.7176224 2.07534685,53.9640189 2.73158301,54.0069517 L2.73158301,54.0498844 L7.37370812,54.0498844 L7.37370812,60.6223258 L11.8256739,72.602425 L11.8256739,75.6674489 C11.5460278,75.8055803 11.4080691,75.9455783 11.2701103,76.0837097 C10.7126824,76.6418352 10.4349007,77.4762236 10.4349007,78.1743471 L10.4349007,87.2294206 L13.4942289,87.2294206 L13.4942289,78.3143452 L31.441915,78.3143452 L31.441915,87.367552 L34.5031075,87.367552 L34.5031075,78.4524766 C34.5031075,77.6180883 34.2253257,76.9218313 33.6697622,76.3637058 C33.5280748,76.2237077 33.2521573,76.0837097 33.1123343,75.9455783 L33.1123343,73.1586839 C34.7808893,71.3480426 40.6254926,64.7998674 40.6254926,59.0898139 L40.6254926,54.0498844 L52.3128349,54.0498844 L52.3128349,59.0898139 C52.3128349,64.7998674 58.1537096,71.3480426 59.8241289,73.1586839 L59.8241289,75.9455783 C59.6861701,76.0837097 59.406524,76.2237077 59.2685653,76.3637058 C58.7111374,76.9218313 58.4333557,77.6180883 58.4333557,78.4524766 L58.4333557,87.367552 L61.4945482,87.367552 L61.4945482,78.3143452 L79.44037,78.3143452 L79.44037,87.2294206 L82.5034268,87.2294206 L82.5034268,78.1743471 C82.5034268,77.4762236 82.225645,76.6418352 81.6682172,76.0837097 C81.5283941,75.9455783 81.3885711,75.8055803 81.1107893,75.6674489 L81.1107893,72.602425 L85.5646194,60.6223258 L85.5646194,54.0498844 L91.0605972,54.0498844 C91.5527743,53.9248195 92.0113939,53.7250889 92.3805267,53.3536275 C92.9379546,52.7955019 93.2157364,51.959247 93.2157364,51.26299 L93.2157364,17.8295907 C93.0759134,17.1333338 92.6583085,16.2989455 92.102745,15.7408199 L92.102745,15.7408199 Z" id="Fill-45" fill="#1E1777" mask="url(#mask-4)"></path>
                    </g>
                </g>
            </g>
        </g>
    </g>
</svg>